<svg xmlns="http://www.w3.org/2000/svg" xmlns:xlink="http://www.w3.org/1999/xlink" width="500" zoomAndPan="magnify" viewBox="0 0 375 374.999991" height="500" preserveAspectRatio="xMidYMid meet" version="1.0"><defs><clipPath id="d79496824a"><path d="M 41.488281 2.886719 L 333.238281 2.886719 L 333.238281 371.886719 L 41.488281 371.886719 Z M 41.488281 2.886719 " clip-rule="nonzero"/></clipPath></defs><path fill="#2B2D42" d="M 67.320312 245.253906 L 67.316406 245.238281 L 67.308594 245.230469 Z M 67.320312 245.253906 " fill-opacity="1" fill-rule="nonzero"/><path fill="#2B2D42" d="M 321.28125 75.390625 C 321.269531 75.273438 321.261719 75.167969 321.25 75.058594 C 318.871094 75.304688 316.601562 75.429688 314.453125 75.429688 L 314.414062 75.429688 C 306.421875 75.433594 299.984375 73.832031 294.871094 71.398438 C 289.757812 68.964844 285.976562 65.703125 283.25 62.441406 L 283.242188 62.429688 L 283.25 62.441406 L 283.253906 62.441406 C 279.519531 57.976562 277.722656 53.558594 276.941406 51.144531 C 275.691406 51.195312 274.441406 51.230469 273.195312 51.230469 C 250.527344 51.210938 230 43.417969 214.542969 35.152344 C 200.6875 27.738281 190.902344 19.929688 187.3125 16.902344 C 183.730469 19.933594 173.96875 27.742188 160.136719 35.15625 C 144.710938 43.421875 124.207031 51.214844 101.542969 51.230469 C 100.300781 51.230469 99.050781 51.195312 97.800781 51.144531 C 97.019531 53.558594 95.226562 57.976562 91.488281 62.445312 L 91.488281 62.441406 C 88.761719 65.703125 84.984375 68.964844 79.871094 71.398438 C 74.757812 73.835938 68.324219 75.433594 60.328125 75.433594 L 60.292969 75.433594 C 58.140625 75.433594 55.871094 75.304688 53.496094 75.058594 C 53.484375 75.167969 53.472656 75.273438 53.460938 75.390625 C 53.292969 77.070312 53.066406 79.546875 52.835938 82.714844 C 52.378906 89.042969 51.925781 98.140625 51.925781 109.152344 C 51.925781 131.488281 53.800781 161.710938 61.316406 192.761719 L 61.367188 192.949219 L 61.367188 192.992188 C 65.074219 209.949219 70.175781 226.289062 76.792969 240.851562 L 76.792969 240.855469 L 76.828125 240.929688 C 98.28125 288.921875 136.347656 328.167969 186.789062 360.152344 C 237.207031 328.179688 275.261719 288.953125 296.722656 240.992188 L 296.722656 240.988281 L 296.757812 240.914062 C 297.605469 239.046875 298.421875 237.136719 299.230469 235.195312 L 299.234375 235.175781 L 299.273438 235.089844 L 299.289062 235.050781 L 299.292969 235.042969 C 318.824219 190.886719 322.816406 141.667969 322.8125 109.160156 L 322.8125 109.132812 C 322.8125 92.621094 321.789062 80.425781 321.28125 75.386719 Z M 321.28125 75.390625 " fill-opacity="1" fill-rule="nonzero"/><g clip-path="url(#d79496824a)"><path fill="#2B2D42" d="M 331.363281 71.53125 L 330.328125 63.359375 L 322.179688 64.433594 C 319.363281 64.804688 316.796875 64.972656 314.453125 64.972656 C 307.816406 64.960938 303.015625 63.683594 299.359375 61.957031 C 296.621094 60.652344 294.511719 59.074219 292.808594 57.40625 C 290.265625 54.910156 288.667969 52.183594 287.734375 50.117188 C 287.269531 49.09375 286.96875 48.238281 286.804688 47.699219 C 286.71875 47.425781 286.667969 47.234375 286.644531 47.140625 L 286.632812 47.089844 L 285.222656 40.21875 L 278.164062 40.625 C 276.503906 40.722656 274.84375 40.769531 273.199219 40.769531 C 262.363281 40.773438 251.902344 38.761719 242.28125 35.679688 C 227.84375 31.066406 215.332031 24.039062 206.515625 18.175781 C 202.109375 15.242188 198.628906 12.609375 196.273438 10.734375 C 195.097656 9.796875 194.203125 9.046875 193.617188 8.546875 C 193.324219 8.296875 193.109375 8.109375 192.972656 7.992188 L 192.832031 7.863281 L 192.808594 7.84375 L 187.304688 2.832031 L 181.804688 7.851562 C 181.53125 8.105469 172.171875 16.5 157.476562 24.6875 C 150.136719 28.785156 141.46875 32.828125 131.984375 35.824219 C 122.5 38.824219 112.203125 40.773438 101.542969 40.769531 C 99.898438 40.769531 98.242188 40.722656 96.578125 40.625 L 89.519531 40.21875 L 88.109375 47.082031 L 88.105469 47.105469 C 88.046875 47.34375 87.695312 48.675781 86.855469 50.453125 C 86.226562 51.785156 85.328125 53.367188 84.101562 54.957031 C 82.246094 57.355469 79.695312 59.769531 75.980469 61.660156 C 72.261719 63.539062 67.296875 64.960938 60.289062 64.972656 C 57.949219 64.972656 55.378906 64.804688 52.5625 64.433594 L 44.414062 63.359375 L 43.382812 71.53125 C 43.34375 71.792969 41.488281 86.550781 41.488281 109.152344 C 41.492188 132.078125 43.390625 163.070312 51.175781 195.261719 C 55.015625 212.804688 60.304688 229.824219 67.308594 245.222656 L 67.308594 245.230469 L 67.3125 245.238281 C 78.640625 270.566406 94.363281 293.503906 113.769531 314.183594 C 133.1875 334.875 156.289062 353.320312 182.433594 369.777344 L 186.785156 372.519531 L 191.136719 369.777344 C 217.289062 353.320312 240.386719 334.875 259.804688 314.183594 C 279.214844 293.496094 294.941406 270.554688 306.273438 245.222656 C 307.160156 243.253906 308.003906 241.28125 308.820312 239.320312 L 308.851562 239.253906 L 308.894531 239.148438 C 319.089844 216.035156 325.148438 191.886719 328.691406 169.359375 C 332.238281 146.777344 333.253906 125.816406 333.253906 109.132812 C 333.253906 86.542969 331.394531 71.792969 331.363281 71.53125 Z M 302.027344 236.289062 C 301.210938 238.265625 300.367188 240.238281 299.488281 242.164062 L 299.492188 242.15625 C 277.5625 291.203125 238.578125 331.125 187.179688 363.460938 L 186.789062 363.71875 L 186.394531 363.460938 C 135 331.125 96.015625 291.203125 74.085938 242.15625 L 74.089844 242.164062 C 67.324219 227.296875 62.148438 210.683594 58.398438 193.484375 C 50.808594 162.105469 48.921875 131.65625 48.921875 109.152344 C 48.921875 86.960938 50.753906 72.492188 50.757812 72.46875 L 50.851562 71.722656 L 51.59375 71.820312 C 54.707031 72.234375 57.601562 72.421875 60.289062 72.421875 C 75.027344 72.414062 83.644531 66.816406 88.707031 61.066406 C 93.769531 55.3125 95.226562 49.355469 95.371094 48.714844 L 95.382812 48.660156 L 95.441406 48.371094 L 95.511719 48.027344 L 95.53125 48.027344 L 96.152344 48.066406 C 97.960938 48.167969 99.761719 48.21875 101.542969 48.21875 C 145.605469 48.238281 182.050781 17.554688 186.378906 13.742188 C 186.667969 13.492188 186.8125 13.359375 186.8125 13.359375 L 187.3125 12.902344 L 187.8125 13.359375 C 187.8125 13.359375 187.953125 13.492188 188.246094 13.742188 C 188.535156 13.996094 188.964844 14.371094 189.535156 14.84375 C 190.671875 15.796875 192.351562 17.15625 194.515625 18.792969 C 198.847656 22.0625 205.109375 26.425781 212.855469 30.789062 C 228.332031 39.511719 249.695312 48.222656 273.195312 48.21875 C 274.984375 48.21875 276.78125 48.167969 278.585938 48.066406 L 279.210938 48.027344 L 279.230469 48.027344 L 279.296875 48.347656 L 279.359375 48.65625 L 279.371094 48.714844 L 279.417969 48.902344 C 279.460938 49.070312 279.527344 49.324219 279.621094 49.644531 C 279.808594 50.289062 280.117188 51.210938 280.582031 52.328125 C 281.511719 54.554688 283.0625 57.535156 285.554688 60.507812 C 290.546875 66.445312 299.242188 72.40625 314.453125 72.421875 C 317.144531 72.421875 320.035156 72.234375 323.148438 71.820312 L 323.890625 71.722656 L 323.984375 72.46875 C 323.988281 72.492188 325.816406 86.953125 325.816406 109.132812 C 325.8125 141.894531 321.828125 191.492188 302.027344 236.289062 Z M 302.027344 236.289062 " fill-opacity="1" fill-rule="nonzero"/></g></svg>